<svg xmlns="http://www.w3.org/2000/svg" width="273.632" height="90.963" viewBox="0 0 273.632 90.963">
  <g id="Group_277" data-name="Group 277" transform="translate(-49.991 -183)">
    <g id="Path_489" data-name="Path 489" transform="translate(50 183)" fill="none">
      <path d="M50,0C77.614,0,.983,76.917,0,45.482S77.614,90.963,50,90.963,0,70.6,0,45.482,22.386,0,50,0Z" stroke="none"/>
      <path d="M 50.00000381469727 2.999992370605469 C 43.77233123779297 2.999992370605469 37.72361755371094 4.083297729492188 32.02187728881836 6.219810485839844 C 26.52914810180664 8.278007507324219 21.56916046142578 11.22896575927734 17.27970504760742 14.99069976806641 C 13.01687622070313 18.72906494140625 9.616844177246094 23.09222412109375 7.174087524414063 27.95895385742188 C 6.03118896484375 30.2359619140625 5.119903564453125 32.58235168457031 4.444091796875 34.98340606689453 C 4.776382446289063 34.95034027099609 5.118301391601563 34.93350219726563 5.46875 34.93335342407227 C 9.706405639648438 34.93335342407227 15.35477828979492 37.34412384033203 22.2769775390625 42.10346221923828 C 25.70890808105469 39.54763793945313 29.32889938354492 36.47651290893555 32.8480339050293 33.1303825378418 C 36.88987350463867 29.28720855712891 40.71646118164063 25.16188049316406 43.91408920288086 21.20034027099609 C 52.10981750488281 11.04669952392578 53.42007446289063 5.580207824707031 52.90221786499023 3.950912475585938 C 52.83483123779297 3.738868713378906 52.74050140380859 3.585708618164063 52.45779037475586 3.430267333984375 C 52.16550445556641 3.269584655761719 51.45754623413086 2.999992370605469 50.00000381469727 2.999992370605469 M 22.23935317993164 49.47725296020508 C 15.7368049621582 53.82665252685547 10.33216094970703 56.02978134155273 6.155372619628906 56.02978134155273 C 5.6739501953125 56.02978134155273 5.075820922851563 55.99628448486328 4.417190551757813 55.88508605957031 C 4.989547729492188 57.93724822998047 5.734329223632813 59.95187377929688 6.649543762207031 61.92015075683594 C 8.998847961425781 66.97256469726563 12.36797332763672 71.51546478271484 16.66333389282227 75.42266845703125 C 20.97904586791992 79.34836578369141 26.00950241088867 82.43238067626953 31.614990234375 84.58905029296875 C 37.43416213989258 86.82794189453125 43.61977386474609 87.96314239501953 50.00000381469727 87.96314239501953 C 51.42796325683594 87.96314239501953 52.11883163452148 87.70536804199219 52.4035758972168 87.55171203613281 C 52.66006088256836 87.41328430175781 52.73741912841797 87.29389953613281 52.79733276367188 87.10865020751953 C 52.92647552490234 86.70936584472656 53.19160461425781 85.09615325927734 51.18120574951172 81.10162353515625 C 49.63754653930664 78.03450012207031 47.09876251220703 74.30364990234375 43.83933258056641 70.31242370605469 C 40.66424560546875 66.42449951171875 36.84903335571289 62.34008026123047 32.80614852905273 58.50074005126953 C 29.30073547363281 55.17179870605469 25.68194580078125 52.08306884765625 22.23935317993164 49.47725296020508 M 50.00000381469727 -7.62939453125e-06 C 67.60946655273438 -7.62939453125e-06 42.82644653320313 31.2792854309082 22.30241012573242 45.79222869873047 C 15.75092315673828 41.05898284912109 9.63177490234375 37.93155288696289 5.465141296386719 37.93334579467773 C 2.383377075195313 37.93467330932617 0.36676025390625 39.64765167236328 0.0383453369140625 43.68393325805664 C 1.076873779296875 19.39913177490234 23.04813766479492 -7.62939453125e-06 50.00000381469727 -7.62939453125e-06 Z M 0.0383453369140625 43.68393325805664 C 0.0128173828125 44.28076553344727 7.62939453125e-06 44.87904739379883 7.62939453125e-06 45.4815673828125 C -0.02016448974609375 44.83689117431641 -0.00682830810546875 44.23906707763672 0.0383453369140625 43.68393325805664 Z M 7.62939453125e-06 45.4815673828125 C 0.1668624877929688 50.81548690795898 2.511444091796875 53.02978897094727 6.155372619628906 53.02978897094727 C 10.29214477539063 53.02978897094727 16.10276794433594 50.17611694335938 22.30241012573242 45.79222869873047 C 42.73638153076172 60.55514526367188 67.36339569091797 90.96314239501953 50.00000381469727 90.96314239501953 C 22.38576126098633 90.96314239501953 7.62939453125e-06 70.600341796875 7.62939453125e-06 45.4815673828125 Z" stroke="none" fill="#154319"/>
    </g>
    <text id="accumulate" transform="translate(83.622 240)" fill="#154319" font-size="46" font-family="NeusaNextPro-Bold, Neusa Next Pro" font-weight="700"><tspan x="0" y="0">accumulate</tspan></text>
  </g>
</svg>
